<?xml version="1.0" encoding="UTF-8"?>
<svg width="600" height="400" viewBox="0 0 600 400" fill="none" xmlns="http://www.w3.org/2000/svg">
  <rect width="600" height="400" fill="#F3F4F6"/>
  <path d="M300 200C300 231.928 273.858 258 241.5 258C209.142 258 183 231.928 183 200C183 168.072 209.142 142 241.5 142C273.858 142 300 168.072 300 200Z" fill="#E5E7EB"/>
  <path d="M241.5 210C232.388 210 225 202.613 225 193.5C225 184.388 232.388 177 241.5 177C250.612 177 258 184.388 258 193.5C258 202.613 250.612 210 241.5 210Z" fill="#9CA3AF"/>
  <path d="M300 400V360C300 338.954 282.046 322 261 322H222C200.954 322 183 339.954 183 360V400H300Z" fill="#E5E7EB"/>
  <text x="50%" y="320" font-family="Arial, sans-serif" font-size="16" text-anchor="middle" fill="#9CA3AF">Teacher Photo</text>
</svg>
