<svg width="623" height="223" viewBox="0 0 623 223" fill="none" xmlns="http://www.w3.org/2000/svg">
<path d="M74.7671 0.715992C97.5339 0.443917 117.128 7.78712 133.626 23.566C133.898 23.8212 134.169 24.0763 134.449 24.3391C146.867 36.299 154.884 54.5148 155.66 71.6401C155.924 71.6401 156.189 71.6401 156.461 71.6401C156.443 70.9685 156.443 70.9685 156.425 70.2833C156.459 52.9397 166.895 35.732 178.495 23.566C178.786 23.2536 179.078 22.9412 179.378 22.6193C191.278 10.2122 210.017 1.25363 227.228 0.737118C227.81 0.734276 228.391 0.732304 228.973 0.730858C229.584 0.723499 229.584 0.723499 230.207 0.715992C252.557 0.448897 272.254 7.48052 288.506 23.0316C288.983 23.4874 289.466 23.9373 289.95 24.3861C297.88 31.9448 303.966 42.45 307.239 52.823C307.491 53.6031 307.762 54.3735 308.04 55.1444C309.903 60.4036 310.662 65.743 311.5 71.2395C311.55 70.9211 311.6 70.6027 311.652 70.2747C313.554 58.3569 313.554 58.3569 315.506 53.2117C315.619 52.9051 315.732 52.5985 315.849 52.2826C319.901 41.363 325.907 31.985 333.935 23.566C334.226 23.2536 334.517 22.9412 334.817 22.6193C346.717 10.2122 365.457 1.25363 382.667 0.737118C383.249 0.734276 383.831 0.732304 384.412 0.730858C385.023 0.723499 385.023 0.723499 385.646 0.715992C408.552 0.442255 428.236 7.87869 444.806 23.7535C447.519 26.4133 449.881 29.3126 452.117 32.3796C452.285 32.6102 452.453 32.8408 452.626 33.0784C460.946 44.652 465.207 57.6139 466.939 71.6401C466.968 71.4188 466.996 71.1975 467.024 70.9695C469.697 50.2232 479.173 30.8512 495.77 17.6695C505.864 10.0827 516.699 4.72146 529.06 1.98279C529.427 1.90135 529.793 1.81992 530.171 1.73602C534.904 0.747971 539.612 0.666648 544.434 0.680781C545.224 0.678457 545.224 0.678457 546.031 0.676086C550.772 0.680778 555.382 0.868231 560.008 1.95775C560.566 2.08856 560.566 2.08856 561.136 2.22202C571.289 4.69093 581.084 8.51538 589.528 14.7525C589.752 14.915 589.976 15.0775 590.206 15.245C593.526 17.668 596.571 20.3313 599.544 23.1654C599.856 23.4567 600.169 23.7479 600.491 24.048C614.719 37.6949 622.087 57.6835 622.541 77.1067C622.649 89.2759 620.193 101.17 614.767 112.102C614.635 112.374 614.502 112.646 614.366 112.925C611.171 119.415 607.146 125.134 602.348 130.531C602 130.928 601.652 131.325 601.293 131.734C599.362 133.905 597.4 135.919 595.137 137.742C594.764 138.046 594.39 138.349 594.006 138.662C580.256 149.647 563.473 156.039 545.852 155.926C544.66 155.92 543.469 155.926 542.277 155.934C535.985 155.941 530.022 155.267 523.977 153.441C523.625 153.336 523.272 153.232 522.908 153.124C521.876 152.812 520.848 152.491 519.821 152.164C519.541 152.076 519.262 151.988 518.974 151.897C506.5 147.867 494.033 139.558 485.769 129.329C485.441 128.931 485.113 128.534 484.775 128.124C475.117 116.257 469.321 102.429 467.34 87.2642C467.262 86.707 467.183 86.1498 467.102 85.5929C467.049 85.219 466.995 84.8451 466.939 84.4599C466.911 84.6811 466.883 84.9024 466.855 85.1304C466.235 89.9387 465.518 94.6264 464.135 99.2827C464.032 99.6352 463.928 99.9877 463.821 100.351C461.448 108.269 458.242 115.832 453.319 122.518C453.036 122.915 452.753 123.311 452.461 123.719C450.652 126.201 448.712 128.498 446.619 130.745C445.869 131.557 445.156 132.381 444.455 133.235C443.14 134.775 441.659 136.057 440.098 137.341C439.707 137.667 439.316 137.993 438.914 138.329C425.144 149.603 408.222 156.041 390.413 155.926C389.221 155.92 388.03 155.926 386.838 155.934C380.545 155.941 374.583 155.267 368.538 153.441C368.185 153.336 367.832 153.232 367.469 153.124C366.437 152.812 365.409 152.491 364.381 152.164C364.102 152.076 363.822 151.988 363.534 151.897C351.061 147.867 338.594 139.558 330.329 129.329C330.001 128.931 329.673 128.534 329.335 128.124C319.258 115.742 313.381 101.088 311.5 85.2611C311.44 85.6294 311.44 85.6294 311.378 86.0052C309.235 98.9998 305.817 111.748 297.879 122.518C297.724 122.729 297.569 122.94 297.41 123.158C295.426 125.843 293.341 128.393 291.076 130.849C290.372 131.618 289.703 132.404 289.04 133.21C287.716 134.757 286.23 136.049 284.659 137.341C284.051 137.844 284.051 137.844 283.432 138.357C280.018 141.137 276.446 143.544 272.64 145.754C272.372 145.91 272.104 146.066 271.828 146.227C260.09 152.964 247.359 156.034 233.905 155.945C233.498 155.943 233.091 155.942 232.672 155.94C226.779 155.907 221.055 155.798 215.352 154.167C214.933 154.049 214.515 153.93 214.083 153.809C205.434 151.285 197.081 147.787 189.712 142.549C189.295 142.253 188.877 141.957 188.446 141.651C186.12 139.951 183.94 138.142 181.824 136.188C180.973 135.406 180.103 134.657 179.221 133.911C177.616 132.504 176.241 130.979 174.889 129.329C174.56 128.929 174.23 128.53 173.89 128.118C164.496 116.565 156.06 100.519 156.461 85.2611C156.197 85.2611 155.932 85.2611 155.66 85.2611C155.685 85.918 155.685 85.918 155.71 86.5881C155.689 98.5396 149.573 113.129 142.439 122.518C142.12 122.951 141.8 123.384 141.48 123.817C139.648 126.271 137.715 128.596 135.637 130.849C134.932 131.618 134.264 132.404 133.601 133.21C132.276 134.757 130.791 136.049 129.219 137.341C128.612 137.844 128.612 137.844 127.992 138.357C124.578 141.137 121.006 143.544 117.201 145.754C116.933 145.91 116.665 146.066 116.389 146.227C105.154 152.675 92.7088 156.018 79.7879 155.904C78.6366 155.895 77.4858 155.896 76.3345 155.899C72.2537 155.893 68.3403 155.717 64.3191 154.968C63.9971 154.912 63.6752 154.856 63.3434 154.798C53.0104 152.898 42.8344 148.635 34.2728 142.549C33.8551 142.253 33.4373 141.957 33.0068 141.651C30.6804 139.951 28.5007 138.142 26.3841 136.188C25.5334 135.406 24.6633 134.657 23.7817 133.911C22.1755 132.503 20.8084 130.975 19.45 129.329C19.1928 129.026 19.1928 129.026 18.9304 128.716C8.09254 115.905 1.08653 99.3175 0.620985 82.4568C0.610076 82.0973 0.599167 81.7379 0.587927 81.3676C0.03026 60.043 7.29871 40.2454 21.9977 24.6756C22.3468 24.3094 22.6959 23.9433 23.0556 23.566C23.3468 23.2536 23.6381 22.9412 23.9382 22.6193C35.8383 10.2122 54.5776 1.25363 71.7885 0.737118C73.2778 0.730111 73.2778 0.730111 74.7671 0.715992Z" fill="#C4E85D"/>
<path d="M74.7671 0.716002C97.5339 0.443928 117.128 7.78713 133.626 23.5661C133.898 23.8212 134.169 24.0763 134.449 24.3391C146.867 36.299 154.884 54.5148 155.66 71.6401C155.924 71.6401 156.189 71.6401 156.461 71.6401C156.443 70.9685 156.443 70.9685 156.425 70.2834C156.459 52.9397 166.895 35.732 178.495 23.5661C178.786 23.2536 179.078 22.9412 179.378 22.6193C191.278 10.2122 210.017 1.25364 227.228 0.737129C227.81 0.734287 228.391 0.732315 228.973 0.730869C229.584 0.72351 229.584 0.72351 230.207 0.716002C252.557 0.448907 272.254 7.48053 288.506 23.0316C288.983 23.4874 289.466 23.9373 289.95 24.3861C297.88 31.9448 303.966 42.45 307.239 52.8231C307.491 53.6031 307.762 54.3735 308.04 55.1444C309.309 58.7277 310.152 62.2808 310.699 66.0315C310.741 66.3162 310.782 66.601 310.826 66.8943C311.898 74.5433 312.017 82.4485 310.699 90.0685C310.654 90.3562 310.608 90.6438 310.562 90.9402C308.783 102.122 304.667 113.385 297.879 122.519C297.725 122.728 297.57 122.938 297.412 123.154C295.427 125.841 293.343 128.392 291.076 130.849C290.372 131.618 289.703 132.404 289.04 133.21C287.716 134.757 286.23 136.049 284.659 137.341C284.051 137.844 284.051 137.844 283.432 138.357C280.018 141.137 276.446 143.544 272.64 145.754C272.372 145.91 272.104 146.066 271.828 146.227C260.09 152.964 247.359 156.034 233.905 155.945C233.498 155.943 233.091 155.942 232.672 155.94C226.779 155.907 221.055 155.798 215.352 154.167C214.933 154.049 214.515 153.931 214.083 153.809C205.434 151.285 197.081 147.787 189.712 142.549C189.295 142.253 188.877 141.957 188.446 141.651C186.12 139.951 183.94 138.142 181.824 136.188C180.973 135.406 180.103 134.657 179.221 133.911C177.616 132.504 176.241 130.979 174.89 129.329C174.56 128.929 174.23 128.53 173.89 128.118C164.496 116.565 156.06 100.519 156.461 85.2611C156.197 85.2611 155.932 85.2611 155.66 85.2611C155.685 85.918 155.685 85.918 155.71 86.5882C155.689 98.5397 149.573 113.129 142.44 122.519C142.12 122.951 141.8 123.384 141.48 123.817C139.648 126.271 137.715 128.596 135.637 130.849C134.932 131.618 134.264 132.404 133.601 133.21C132.276 134.757 130.791 136.049 129.219 137.341C128.612 137.844 128.612 137.844 127.992 138.357C124.578 141.137 121.006 143.544 117.201 145.754C116.933 145.91 116.665 146.066 116.389 146.227C105.154 152.675 92.7088 156.019 79.7879 155.904C78.6367 155.895 77.4858 155.896 76.3345 155.899C72.2537 155.893 68.3403 155.717 64.3191 154.969C63.9972 154.912 63.6752 154.856 63.3434 154.798C53.0105 152.898 42.8344 148.635 34.2728 142.549C33.8551 142.253 33.4373 141.957 33.0068 141.651C30.6804 139.951 28.5007 138.142 26.3841 136.188C25.5334 135.406 24.6633 134.657 23.7817 133.911C22.1755 132.503 20.8084 130.975 19.45 129.329C19.1928 129.026 19.1928 129.026 18.9305 128.716C8.09254 115.906 1.08653 99.3175 0.620985 82.4568C0.610076 82.0974 0.599167 81.7379 0.587927 81.3676C0.0302599 60.043 7.29871 40.2454 21.9977 24.6756C22.3468 24.3094 22.6959 23.9433 23.0556 23.5661C23.3468 23.2536 23.6381 22.9412 23.9382 22.6193C35.8384 10.2122 54.5776 1.25364 71.7885 0.737129C73.2778 0.730122 73.2778 0.730122 74.7671 0.716002Z" fill="#60941B"/>
<path d="M544.434 0.680781C545.224 0.678457 545.224 0.678457 546.031 0.676086C550.772 0.680778 555.382 0.868231 560.008 1.95775C560.38 2.04496 560.753 2.13217 561.136 2.22202C571.289 4.69093 581.084 8.51538 589.528 14.7525C589.752 14.915 589.976 15.0776 590.206 15.245C593.526 17.668 596.571 20.3313 599.544 23.1654C599.856 23.4567 600.169 23.7479 600.491 24.048C614.719 37.6949 622.087 57.6835 622.541 77.1067C622.649 89.2759 620.193 101.17 614.767 112.102C614.635 112.374 614.502 112.646 614.366 112.925C611.171 119.415 607.146 125.134 602.348 130.531C602 130.928 601.652 131.325 601.293 131.734C599.362 133.905 597.4 135.919 595.137 137.742C594.764 138.046 594.39 138.349 594.006 138.662C580.256 149.647 563.473 156.04 545.852 155.926C544.66 155.92 543.469 155.926 542.277 155.934C535.985 155.941 530.022 155.267 523.977 153.441C523.625 153.336 523.272 153.232 522.908 153.124C521.876 152.812 520.848 152.491 519.821 152.164C519.541 152.076 519.262 151.988 518.974 151.897C506.5 147.867 494.033 139.558 485.769 129.329C485.441 128.931 485.113 128.534 484.775 128.124C471.587 111.921 465.261 91.4534 467.152 70.6167C467.647 65.9101 468.379 61.3523 469.744 56.8173C469.887 56.3318 470.031 55.8464 470.179 55.3463C476.45 35.3974 490.502 18.815 509.004 9.14382C515.386 5.81532 522.037 3.53883 529.06 1.98279C529.427 1.90135 529.793 1.81992 530.171 1.73602C534.904 0.747971 539.612 0.666648 544.434 0.680781Z" fill="#FAE222"/>
<path d="M74.7671 0.716026C97.5339 0.443951 117.128 7.78715 133.626 23.5661C133.898 23.8212 134.169 24.0763 134.449 24.3391C146.648 36.0885 155.255 54.6646 155.737 71.6222C155.75 72.3381 155.761 73.054 155.769 73.77C155.774 74.1569 155.78 74.5439 155.785 74.9426C155.951 90.7087 155.951 90.7087 153.657 98.0809C153.492 98.6526 153.492 98.6526 153.325 99.2358C150.973 107.391 147.605 115.719 142.44 122.519C142.12 122.951 141.8 123.384 141.48 123.817C139.648 126.271 137.715 128.596 135.637 130.849C134.932 131.618 134.264 132.404 133.601 133.21C132.276 134.757 130.791 136.049 129.219 137.341C128.612 137.844 128.612 137.844 127.992 138.357C124.578 141.137 121.006 143.544 117.201 145.754C116.933 145.91 116.665 146.066 116.389 146.227C105.154 152.675 92.7088 156.019 79.7879 155.904C78.6367 155.895 77.4858 155.896 76.3345 155.899C72.2537 155.893 68.3403 155.717 64.3191 154.969C63.9971 154.912 63.6752 154.856 63.3434 154.798C53.0105 152.898 42.8344 148.635 34.2728 142.549C33.8551 142.253 33.4373 141.957 33.0068 141.651C30.6804 139.951 28.5007 138.142 26.3841 136.188C25.5334 135.406 24.6633 134.657 23.7817 133.911C22.1755 132.503 20.8084 130.975 19.45 129.329C19.1928 129.026 19.1928 129.026 18.9304 128.716C8.09254 115.906 1.08653 99.3175 0.620985 82.4568C0.610076 82.0974 0.599167 81.738 0.587927 81.3676C0.0302599 60.043 7.29871 40.2454 21.9977 24.6756C22.3468 24.3095 22.6959 23.9433 23.0556 23.5661C23.3468 23.2536 23.6381 22.9412 23.9382 22.6193C35.8383 10.2123 54.5776 1.25366 71.7885 0.737152C73.2778 0.730146 73.2778 0.730146 74.7671 0.716026Z" fill="#60941A"/>
<path d="M569.579 60.6247C570.3 61.455 570.882 62.3176 571.501 63.2272C571.743 63.4054 571.985 63.5836 572.235 63.7671C573.259 64.6102 573.757 65.2118 574.305 66.4321C574.488 69.1688 573.816 71.9411 573.328 74.6197C573.205 75.3657 573.083 76.1119 572.963 76.8583C572.634 78.863 572.287 80.8628 571.901 82.8574C571.838 83.1877 571.776 83.518 571.711 83.8584C571.646 84.1791 571.581 84.4998 571.514 84.8302C571.456 85.1173 571.399 85.4045 571.34 85.7003C570.94 86.9714 570.135 87.6186 569.122 88.441C568.771 88.7338 568.421 89.0266 568.059 89.3283C566.218 90.7403 564.973 91.0223 562.707 91.1233C562.398 91.1399 562.088 91.1566 561.769 91.1737C560.782 91.2261 559.794 91.2733 558.806 91.3204C558.136 91.3551 557.466 91.39 556.796 91.4253C555.154 91.5117 553.512 91.5911 551.87 91.671C551.87 93.7862 551.87 95.9015 551.87 98.0809C559.803 98.0809 567.735 98.0809 575.907 98.0809C575.907 101.915 575.907 105.749 575.907 109.699C568.107 109.699 560.307 109.699 552.271 109.699C552.271 111.417 552.271 113.136 552.271 114.907C552.666 114.887 553.06 114.867 553.467 114.846C557.22 114.655 560.973 114.467 564.726 114.28C566.655 114.184 568.584 114.087 570.512 113.989C572.38 113.894 574.247 113.8 576.115 113.708C576.821 113.673 577.527 113.638 578.233 113.601C583.071 113.352 587.889 113.261 592.733 113.304C592.992 117.054 593.185 120.761 593.134 124.522C590.062 124.797 586.997 125.006 583.914 125.126C583.5 125.143 583.085 125.16 582.657 125.178C581.759 125.215 580.862 125.251 579.964 125.287C578.516 125.345 577.068 125.404 575.619 125.463C573.54 125.548 571.461 125.633 569.382 125.717C563.934 125.938 558.487 126.162 553.039 126.387C552.767 126.398 552.494 126.409 552.214 126.421C544.719 126.731 537.225 127.057 529.732 127.414C529.133 127.442 529.133 127.442 528.523 127.471C524.828 127.646 521.134 127.825 517.44 128.009C510.481 128.355 503.556 128.608 496.585 128.528C496.453 124.826 496.321 121.124 496.185 117.31C501.392 117.035 506.6 116.769 511.809 116.509C512.193 116.49 512.577 116.471 512.974 116.451C522.339 115.983 531.674 115.563 541.054 115.708C541.054 113.725 541.054 111.742 541.054 109.699C531.932 109.699 522.81 109.699 513.411 109.699C513.411 105.997 513.411 102.295 513.411 98.4815C522.269 98.4815 531.126 98.4815 540.252 98.4815C540.252 96.4984 540.252 94.5154 540.252 92.4722C539.042 92.559 539.042 92.559 537.807 92.6475C537.006 92.7033 536.205 92.7591 535.404 92.8145C534.856 92.8528 534.309 92.8916 533.762 92.9311C531.92 93.0639 530.078 93.1755 528.234 93.2735C527.755 93.3023 527.277 93.3312 526.783 93.361C523.983 93.4612 522.178 93.2618 519.971 91.4957C519.737 91.3348 519.503 91.174 519.262 91.0082C517.314 89.5481 516.806 87.9618 516.215 85.6617C515.982 84.8468 515.747 84.032 515.513 83.2173C515.27 82.3465 515.029 81.4753 514.788 80.6039C514.546 79.7307 514.303 78.8575 514.061 77.9843C513.948 77.5767 513.836 77.1691 513.721 76.7492C513.47 75.8552 513.201 74.9706 512.924 74.0845C512.229 71.3389 512.72 69.5431 514.112 67.1582C515.171 65.5945 516.216 64.2955 518.049 63.6842C519.307 63.4865 520.543 63.3843 521.815 63.3101C522.298 63.2702 522.782 63.2302 523.28 63.1891C524.352 63.1025 525.422 63.0213 526.494 62.9483C528.323 62.823 530.149 62.6728 531.976 62.5207C535.673 62.2157 539.371 61.9323 543.07 61.6531C545.833 61.4442 548.596 61.232 551.359 61.0202C552.31 60.9476 553.261 60.8756 554.212 60.8039C568.278 59.7369 568.278 59.7369 569.579 60.6247Z" fill="#FEFEFC"/>
<path d="M255.689 26.746C256.013 26.7478 256.337 26.7496 256.671 26.7514C257.454 26.7561 258.237 26.7632 259.019 26.771C259.077 28.6578 259.134 30.5447 259.19 32.4316C259.21 33.0706 259.229 33.7096 259.249 34.3486C259.377 38.5014 259.448 42.6469 259.42 46.8019C259.822 46.6541 260.224 46.5064 260.638 46.3542C262.134 45.8064 263.631 45.2652 265.129 44.7259C265.777 44.4918 266.424 44.2559 267.07 44.0182C268 43.6764 268.933 43.3411 269.866 43.0069C270.153 42.8997 270.441 42.7925 270.737 42.682C272.325 42.121 273.436 41.8151 275.044 42.3951C275.853 42.8387 275.853 42.8387 276.628 43.3841C276.909 43.5798 277.19 43.7755 277.479 43.9772C277.766 44.1822 278.053 44.3872 278.349 44.5985C278.642 44.8035 278.936 45.0085 279.238 45.2197C281.364 46.7117 281.364 46.7117 281.854 47.2025C281.938 48.0446 281.994 48.8895 282.041 49.7345C282.056 50.0028 282.071 50.2711 282.086 50.5475C282.136 51.4522 282.183 52.357 282.23 53.2618C282.264 53.902 282.299 54.5421 282.333 55.1823C282.699 62.0997 282.986 69.0209 283.271 75.9421C283.401 79.1069 283.532 82.2717 283.667 85.4364C283.682 85.815 283.698 86.1935 283.714 86.5835C283.783 88.1883 283.86 89.79 283.983 91.3917C284.222 94.6325 283.439 96.4829 281.549 99.1121C279.866 100.936 277.702 101.727 275.443 102.63C274.986 102.814 274.986 102.814 274.52 103.002C273.879 103.26 273.238 103.517 272.596 103.773C271.614 104.165 270.635 104.562 269.655 104.959C269.031 105.21 268.406 105.46 267.781 105.71C267.343 105.888 267.343 105.888 266.896 106.07C265.5 106.622 264.549 106.894 263.025 106.894C262.421 105.385 261.822 103.874 261.223 102.362C261.051 101.933 260.879 101.504 260.702 101.061C260.539 100.649 260.376 100.238 260.209 99.8132C260.058 99.4335 259.906 99.0538 259.751 98.6625C259.42 97.6803 259.42 97.6803 259.42 96.4784C261.051 95.791 262.684 95.1065 264.318 94.4245C264.873 94.1921 265.428 93.9589 265.983 93.7249C266.781 93.3888 267.58 93.0555 268.379 92.7226C268.859 92.5212 269.34 92.3198 269.835 92.1123C271.038 91.671 271.038 91.671 272.24 91.671C271.446 73.6252 271.446 73.6252 270.637 55.2148C267.2 56.4047 263.763 57.5945 260.221 58.8204C260.221 68.0746 260.221 77.3289 260.221 86.8636C252.316 87.3286 252.316 87.3286 249.004 87.2642C248.486 79.1223 248.563 70.9807 248.603 62.8266C248.282 62.9358 247.96 63.045 247.629 63.1575C246.436 63.5621 245.242 63.9651 244.048 64.367C243.531 64.5412 243.015 64.7161 242.499 64.8916C241.756 65.1439 241.013 65.3937 240.27 65.6434C239.823 65.7944 239.376 65.9455 238.916 66.1011C237.787 66.4321 237.787 66.4321 236.585 66.4321C236.587 66.6545 236.588 66.8769 236.59 67.1061C236.63 72.6689 236.505 78.2031 236.234 83.7588C236.198 84.5301 236.162 85.3015 236.126 86.0728C236.033 88.0676 235.938 90.0623 235.842 92.057C235.744 94.0988 235.648 96.1407 235.552 98.1826C235.364 102.155 235.174 106.127 234.982 110.099C235.285 110.116 235.588 110.133 235.9 110.15C239.188 110.364 242.398 110.818 245.639 111.398C246.526 111.556 247.414 111.712 248.301 111.866C249.585 112.09 250.869 112.315 252.152 112.541C255.452 113.122 258.752 113.697 262.054 114.266C263.135 114.453 264.216 114.643 265.297 114.833C265.965 114.948 266.634 115.064 267.302 115.179C267.756 115.26 267.756 115.26 268.219 115.342C269.845 115.62 271.391 115.763 273.041 115.708C273.123 115.255 273.205 114.801 273.29 114.334C273.399 113.74 273.508 113.147 273.617 112.553C273.698 112.105 273.698 112.105 273.78 111.647C274.197 109.389 274.197 109.389 274.643 108.497C278.421 108.802 282.129 109.453 285.861 110.099C285.657 111.54 285.431 112.976 285.196 114.412C285.044 115.411 284.918 116.412 284.79 117.414C283.879 123.851 283.879 123.851 281.479 125.774C280.466 126.403 280.466 126.403 279.451 126.925C279.153 127.147 278.855 127.369 278.548 127.598C275.809 128.915 272.285 127.94 269.41 127.421C268.553 127.273 267.696 127.124 266.839 126.976C266.405 126.901 265.97 126.825 265.522 126.747C263.508 126.401 261.489 126.083 259.47 125.766C256.983 125.373 254.496 124.98 252.01 124.576C251.357 124.47 251.357 124.47 250.69 124.362C249.812 124.219 248.933 124.077 248.054 123.934C245.574 123.534 243.092 123.154 240.606 122.796C239.133 122.582 237.662 122.354 236.192 122.125C235.511 122.021 234.83 121.924 234.148 121.833C230.913 121.4 228.32 121.052 226.007 118.522C225.509 117.864 225.027 117.194 224.566 116.509C224.227 116.162 224.227 116.162 223.881 115.808C223.054 114.366 223.224 112.929 223.266 111.298C223.27 110.943 223.275 110.589 223.28 110.223C223.344 106.456 223.534 102.694 223.74 98.9322C223.816 97.492 223.89 96.0518 223.964 94.6115C223.991 94.0807 223.991 94.0807 224.019 93.5393C224.179 90.3384 224.278 87.1377 224.366 83.9341C224.494 79.4064 224.823 74.9344 225.367 70.4383C225.028 70.5657 225.028 70.5657 224.681 70.6957C223.659 71.0786 222.635 71.4596 221.612 71.8404C221.255 71.9742 220.899 72.1079 220.532 72.2458C220.191 72.3723 219.85 72.4988 219.499 72.6292C219.184 72.7466 218.87 72.8641 218.545 72.9852C217.756 73.2426 217.756 73.2426 216.954 73.2426C216.416 71.6748 215.884 70.1053 215.352 68.5353C215.199 68.0902 215.046 67.645 214.889 67.1864C214.744 66.7578 214.6 66.3291 214.451 65.8875C214.316 65.4931 214.182 65.0987 214.044 64.6923C213.75 63.6278 213.75 63.6278 213.75 62.0253C215.267 61.5095 216.786 60.9961 218.305 60.4849C218.822 60.3106 219.338 60.1358 219.854 59.9602C220.596 59.7079 221.34 59.4582 222.083 59.2085C222.53 59.0574 222.976 58.9064 223.437 58.7507C224.566 58.4198 224.566 58.4198 225.768 58.4198C225.776 58.0927 225.784 57.7657 225.792 57.4287C226.012 48.6656 226.428 39.9266 226.97 31.1778C230.804 31.1778 234.638 31.1778 238.588 31.1778C238.363 38.8169 237.991 46.3952 237.386 54.013C237.673 53.9159 237.96 53.8188 238.256 53.7188C239.551 53.2814 240.847 52.8459 242.143 52.4105C242.595 52.2576 243.047 52.1048 243.513 51.9473C243.944 51.8027 244.375 51.6581 244.819 51.5091C245.218 51.3748 245.616 51.2406 246.027 51.1022C247.001 50.808 247.001 50.808 247.802 50.808C247.79 50.5048 247.778 50.2016 247.765 49.8891C247.469 42.3108 247.346 34.7561 247.401 27.1716C250.174 26.881 252.902 26.7155 255.689 26.746Z" fill="#FDFDFC"/>
<path d="M365.984 60.4229C369.122 60.4229 372.095 60.4357 375.189 60.7475C375.552 60.782 375.915 60.8165 376.289 60.8521C377.468 60.9649 378.647 61.0811 379.826 61.1975C380.655 61.2776 381.484 61.3574 382.313 61.4371C384.482 61.6462 386.651 61.8582 388.82 62.0709C390.589 62.2438 392.358 62.4146 394.127 62.5852C396.245 62.7896 398.364 62.9949 400.483 63.2006C400.883 63.2394 401.284 63.2783 401.696 63.3183C402.835 63.429 403.974 63.5404 405.112 63.6519C405.445 63.6842 405.777 63.7165 406.119 63.7497C408.103 63.945 410.079 64.1738 412.055 64.429C412.539 65.8537 413.011 67.2817 413.482 68.7106C413.619 69.1142 413.757 69.5178 413.898 69.9336C414.026 70.3248 414.153 70.716 414.285 71.119C414.405 71.4778 414.524 71.8365 414.647 72.2061C414.889 73.385 414.828 74.1042 414.459 75.2457C413.65 76.0726 412.875 76.778 411.98 77.4992C411.729 77.7081 411.478 77.9169 411.219 78.1322C409.292 79.7237 407.325 81.2648 405.35 82.7954C403.381 84.328 401.489 85.94 399.607 87.5771C398.009 88.9621 396.37 90.2664 394.658 91.5098C393.914 92.0785 393.914 92.0785 393.627 93.2735C394.097 93.203 394.567 93.1325 395.052 93.0599C400.791 92.2129 406.543 91.5144 412.306 90.8488C413.845 90.671 415.383 90.4912 416.922 90.3111C422.128 89.7046 427.336 89.1233 432.549 88.5787C433.289 88.5009 433.289 88.5009 434.045 88.4214C434.5 88.3744 434.956 88.3275 435.426 88.2791C436.027 88.2169 436.027 88.2169 436.64 88.1535C437.695 88.0654 437.695 88.0654 439.297 88.0654C439.79 91.8221 440.214 95.4856 440.098 99.2827C437.14 99.9385 434.198 100.332 431.185 100.632C430.72 100.68 430.255 100.728 429.776 100.777C428.276 100.932 426.776 101.084 425.275 101.236C423.213 101.447 421.151 101.66 419.089 101.874C418.584 101.927 418.078 101.979 417.557 102.033C412.923 102.516 408.295 103.053 403.673 103.642C400.974 103.976 398.35 104.182 395.63 104.09C395.704 104.424 395.778 104.757 395.855 105.1C396.637 108.673 397.306 112.251 397.908 115.858C398.043 116.64 398.043 116.64 398.181 117.437C398.42 118.862 398.638 120.286 398.835 121.717C398.88 122.047 398.925 122.376 398.972 122.715C399.093 124.31 398.867 124.883 397.854 126.143C397.429 126.513 396.996 126.874 396.556 127.226C396.344 127.408 396.131 127.59 395.912 127.778C395.292 128.306 394.663 128.82 394.027 129.329C393.724 129.621 393.42 129.912 393.108 130.213C392.024 130.931 392.024 130.931 390.814 130.918C390.148 130.77 390.148 130.77 389.467 130.619C388.721 130.46 388.721 130.46 387.96 130.299C387.428 130.176 386.897 130.053 386.366 129.93C385.824 129.812 385.282 129.694 384.74 129.578C383.662 129.344 382.586 129.106 381.51 128.864C380.192 128.569 378.872 128.289 377.549 128.019C377.197 127.947 376.845 127.876 376.482 127.802C376.157 127.736 375.833 127.669 375.499 127.601C372.525 126.991 372.525 126.991 371.593 126.525C371.751 122.779 372.625 119.308 373.596 115.708C377.911 116.196 382.157 116.862 386.416 117.711C386.369 117.489 386.323 117.268 386.275 117.039C386.061 116.012 385.85 114.984 385.639 113.955C385.53 113.432 385.53 113.432 385.418 112.899C385.311 112.376 385.311 112.376 385.203 111.843C385.138 111.528 385.073 111.213 385.006 110.889C384.727 109.165 384.573 107.431 384.413 105.693C384.063 105.731 384.063 105.731 383.705 105.77C373.417 106.902 363.128 108.03 352.835 109.116C352.007 109.204 351.18 109.292 350.353 109.38C349.2 109.504 348.047 109.625 346.894 109.746C346.56 109.782 346.225 109.818 345.881 109.855C343.89 110.061 341.946 110.132 339.944 110.099C339.806 109.132 339.674 108.164 339.543 107.195C339.505 106.929 339.467 106.664 339.428 106.391C339.097 103.886 339.104 101.405 339.143 98.8821C346.952 97.8917 354.765 97.0167 362.599 96.2538C366.94 95.83 371.272 95.3679 375.599 94.8211C377.89 94.5409 380.101 94.428 382.409 94.4753C382.314 94.1167 382.314 94.1167 382.217 93.7508C381.536 90.8803 382.137 88.1694 383.611 85.6617C384.995 84.2274 386.492 83.0178 388.079 81.8164C388.835 81.2432 389.58 80.6581 390.323 80.0687C391.451 79.1752 392.584 78.2893 393.723 77.4102C394.381 76.8857 395.028 76.3507 395.674 75.8115C396.056 75.4926 396.438 75.1737 396.832 74.8451C396.459 74.8058 396.086 74.7666 395.702 74.7261C392.188 74.356 388.675 73.9847 385.162 73.6122C383.356 73.4208 381.55 73.2297 379.743 73.0397C378 72.8562 376.257 72.6717 374.515 72.4864C373.849 72.4159 373.184 72.3457 372.519 72.276C371.588 72.1784 370.657 72.0793 369.725 71.9798C369.45 71.9513 369.175 71.9228 368.892 71.8934C367.611 71.7552 366.437 71.5531 365.183 71.2395C365.447 67.67 365.712 64.1005 365.984 60.4229Z" fill="#FEFEFD"/>
<path d="M79.1419 27.5722C80.7047 28.0588 82.1046 28.618 83.533 29.4157C83.8868 29.6119 84.2405 29.8082 84.605 30.0104C84.967 30.2138 85.329 30.4173 85.702 30.6269C86.0733 30.8335 86.4446 31.0401 86.8272 31.2529C87.7384 31.7602 88.6486 32.2694 89.5579 32.7803C87.6157 36.7176 85.621 40.6265 83.5987 44.5234C83.2554 45.1864 83.2554 45.1864 82.9052 45.8628C82.6889 46.2786 82.4726 46.6943 82.2498 47.1227C82.0562 47.4952 81.8626 47.8677 81.6631 48.2515C81.145 49.2056 81.145 49.2056 80.3437 50.4074C80.63 50.3815 80.9163 50.3556 81.2113 50.3289C89.5775 49.5783 97.9504 48.9113 106.325 48.2668C107.51 48.1755 108.695 48.0833 109.88 47.9902C111.306 47.8782 112.731 47.7685 114.157 47.6603C114.938 47.6007 115.718 47.539 116.498 47.4772C119.814 47.2288 123.09 47.1572 126.415 47.2025C126.551 48.3206 126.684 49.4389 126.815 50.5577C126.873 51.0232 126.873 51.0232 126.931 51.4982C127.126 53.1863 127.237 54.8394 127.227 56.5397C127.225 56.8938 127.224 57.2478 127.222 57.6126C127.22 57.879 127.218 58.1453 127.216 58.4198C126.967 58.439 126.718 58.4581 126.462 58.4779C123.862 58.6785 121.262 58.8801 118.663 59.0824C117.694 59.1577 116.725 59.2327 115.756 59.3074C114.359 59.4151 112.963 59.5237 111.567 59.6326C111.136 59.6656 110.706 59.6985 110.263 59.7325C108.521 59.8691 106.785 60.0103 105.052 60.2353C103.656 60.4131 102.275 60.5261 100.871 60.6091C100.362 60.6399 99.8531 60.6707 99.3289 60.7024C98.7844 60.7344 98.24 60.7664 97.6955 60.7984C96.5478 60.8672 95.4002 60.9367 94.2527 61.0066C93.9623 61.0242 93.6719 61.0418 93.3727 61.06C91.42 61.1799 89.4686 61.313 87.5173 61.4541C87.0048 61.4911 86.4924 61.528 85.9644 61.5661C85.003 61.6363 84.0417 61.7078 83.0805 61.7811C80.0263 62.0026 76.9957 62.065 73.9339 62.0253C73.8275 62.3702 73.7211 62.7151 73.6115 63.0704C73.1305 64.435 72.5495 65.6554 71.8807 66.9376C71.7593 67.1713 71.638 67.4051 71.513 67.646C71.1198 68.4024 70.7241 69.1574 70.3283 69.9125C70.0536 70.4396 69.7791 70.9668 69.5047 71.494C68.7134 73.013 67.9189 74.5302 67.1234 76.0469C66.9264 76.4226 66.7295 76.7982 66.5265 77.1852C65.7203 78.7213 64.9116 80.2561 64.1015 81.7901C62.9646 83.9448 61.8392 86.1053 60.7135 88.2658C59.2591 91.0567 57.8001 93.845 56.3317 96.6286C54.7765 99.5774 53.236 102.534 51.6996 105.492C50.0075 108.751 48.314 112.008 46.5923 115.251C45.6502 117.029 44.732 118.817 43.8297 120.616C43.6146 121.04 43.3995 121.464 43.178 121.901C42.7569 122.732 42.3401 123.566 41.9282 124.402C41.6416 124.965 41.6416 124.965 41.3493 125.539C41.1818 125.874 41.0142 126.21 40.8417 126.555C40.282 127.326 40.282 127.326 39.5443 127.701C38.3273 127.737 37.6515 127.31 36.5951 126.714C36.2026 126.496 35.8101 126.278 35.4057 126.053C34.7953 125.704 34.7953 125.704 34.1726 125.348C33.7594 125.117 33.3463 124.886 32.9207 124.648C31.8999 124.076 30.8819 123.5 29.8659 122.919C30.1121 121.064 30.8835 119.556 31.7423 117.921C31.8909 117.633 32.0396 117.345 32.1927 117.049C32.675 116.116 33.1608 115.186 33.6468 114.256C33.9804 113.613 34.3138 112.97 34.6469 112.327C35.587 110.514 36.5314 108.704 37.4777 106.894C37.8022 106.274 37.8022 106.274 38.1332 105.641C38.9326 104.114 39.7356 102.59 40.5418 101.067C41.6664 98.9412 42.7765 96.8082 43.8876 94.6756C45.5109 91.5607 47.1413 88.4497 48.7795 85.3425C50.0935 82.8484 51.3982 80.3496 52.7011 77.8497C54.2425 74.8938 55.7845 71.9381 57.3333 68.986C57.4957 68.6754 57.6581 68.3648 57.8254 68.0448C57.9775 67.7553 58.1296 67.4658 58.2863 67.1676C58.4172 66.9179 58.5482 66.6681 58.6831 66.4108C59.2008 65.4672 59.7546 64.5479 60.3129 63.6278C59.9594 63.66 59.606 63.6922 59.2419 63.7254C52.4262 64.3413 45.612 64.908 38.7797 65.3054C38.4907 65.3224 38.2018 65.3394 37.904 65.357C35.2201 65.5138 32.5567 65.6309 29.8659 65.6309C29.7337 61.9292 29.6015 58.2275 29.4653 54.4136C30.9968 54.1073 32.3556 53.9232 33.901 53.8268C34.3823 53.796 34.8637 53.7652 35.3596 53.7335C35.8763 53.7018 36.3929 53.6701 36.9253 53.6374C37.4646 53.6032 38.0038 53.5688 38.5431 53.5342C40.2494 53.4252 41.9558 53.3184 43.6622 53.2117C45.6393 53.0881 47.6164 52.9636 49.5933 52.837C50.3819 52.787 51.1705 52.7384 51.9592 52.6899C52.6831 52.6438 52.6831 52.6438 53.4217 52.5967C53.8444 52.5704 54.2672 52.544 54.7027 52.5168C55.9208 52.4092 57.1056 52.2194 58.3098 52.0099C59.0298 51.9551 59.751 51.9128 60.4725 51.8831C61.0573 51.858 61.0573 51.858 61.654 51.8323C62.0542 51.8165 62.4544 51.8008 62.8668 51.7845C63.2763 51.7672 63.6858 51.7499 64.1078 51.7321C65.1129 51.6898 66.1181 51.6489 67.1234 51.6093C67.2201 51.2836 67.3169 50.958 67.4166 50.6225C68.0264 48.9215 68.8119 47.3662 69.6429 45.7643C69.812 45.4352 69.9811 45.106 70.1553 44.7669C70.6955 43.7168 71.238 42.6678 71.7805 41.6189C72.1359 40.928 72.4912 40.2371 72.8462 39.5462C74.9101 35.5361 77.0058 31.5443 79.1419 27.5722Z" fill="#FDFDFC"/>
<path d="M567.895 27.1716C569.741 27.7485 570.937 28.8099 572.302 30.1262C572.71 30.5138 573.119 30.9009 573.529 31.2873C573.822 31.5645 573.822 31.5645 574.122 31.8472C574.95 32.6027 575.823 33.2953 576.708 33.9821C576.104 35.3748 575.288 36.3323 574.255 37.4374C572.437 39.4176 570.751 41.4788 569.097 43.5969C569.613 43.5172 569.613 43.5172 570.14 43.4358C572.945 43.0168 575.739 42.6298 578.572 42.4749C579.515 42.4188 580.456 42.3245 581.392 42.2026C583.77 41.9953 585.522 41.9523 587.447 43.453C588.771 44.6192 589.961 45.883 591.131 47.2025C591.263 47.3347 591.395 47.4669 591.531 47.6031C591.569 48.2425 591.578 48.8836 591.577 49.5241C591.577 49.9332 591.577 50.3422 591.577 50.7636C591.575 51.2084 591.573 51.6533 591.57 52.1116C591.57 52.791 591.57 52.791 591.569 53.4841C591.566 54.9374 591.561 56.3906 591.556 57.8439C591.554 58.8264 591.552 59.8089 591.551 60.7914C591.547 63.2058 591.539 65.6202 591.531 68.0346C587.83 68.0346 584.128 68.0346 580.314 68.0346C580.314 63.4075 580.314 58.7803 580.314 54.013C577.848 54.2245 577.848 54.2245 575.331 54.4402C572.986 54.6406 570.641 54.8402 568.295 55.0396C567.987 55.0658 567.678 55.0921 567.359 55.1192C559.05 55.8253 550.74 56.5126 542.427 57.1725C542.034 57.2038 541.64 57.2351 541.235 57.2673C537.346 57.5758 533.457 57.8827 529.568 58.1876C522.44 58.7466 515.317 59.3088 508.203 60.0222C508.203 62.6663 508.203 65.3104 508.203 68.0346C504.369 68.0346 500.535 68.0346 496.585 68.0346C496.585 59.838 496.585 51.6413 496.585 43.1963C500.419 43.1963 504.253 43.1963 508.203 43.1963C508.203 44.915 508.203 46.6336 508.203 48.4043C511.574 48.206 511.574 48.206 515.013 48.0037C514.72 47.2033 514.426 46.4028 514.123 45.5781C513.841 44.8041 513.56 44.0297 513.28 43.2552C513.084 42.7162 512.887 42.1776 512.689 41.6394C512.404 40.8668 512.124 40.0928 511.844 39.3185C511.674 38.8527 511.505 38.387 511.329 37.9071C511.007 36.7864 511.007 36.7864 511.408 35.9852C512.237 35.6 512.237 35.6 513.319 35.2059C513.708 35.0639 514.097 34.9219 514.498 34.7755C514.907 34.6294 515.317 34.4832 515.739 34.3327C516.347 34.1088 516.347 34.1088 516.967 33.8804C520.016 32.7803 520.016 32.7803 521.824 32.7803C522.762 35.3163 523.697 37.8534 524.628 40.392C524.737 40.6884 524.846 40.9847 524.958 41.2901C525.242 42.0668 525.523 42.8444 525.805 43.622C525.966 44.0646 526.126 44.5071 526.292 44.9631C526.631 46.0006 526.631 46.0006 526.631 46.8019C526.886 46.7776 527.14 46.7533 527.402 46.7283C528.564 46.6181 529.726 46.5097 530.888 46.4013C531.288 46.363 531.688 46.3248 532.101 46.2855C534.023 46.1072 535.915 45.9479 537.849 46.0006C537.839 45.5049 537.83 45.0091 537.82 44.4983C537.751 38.9386 538.132 33.5102 538.65 27.9729C544.202 28.1712 544.202 28.1712 549.867 28.3735C549.819 30.1259 549.769 31.8783 549.718 33.6306C549.701 34.225 549.684 34.8194 549.668 35.4138C549.578 38.691 549.448 41.9403 549.066 45.1994C549.822 45.1003 549.822 45.1003 550.593 44.9991C552.757 44.7544 554.903 44.7622 557.078 44.7988C556.417 44.1378 555.756 43.4768 555.075 42.7957C555.749 41.1692 556.882 39.9462 558.03 38.6393C558.464 38.1391 558.898 37.6388 559.332 37.1386C559.555 36.8825 559.778 36.6264 560.008 36.3626C561.091 35.1158 562.164 33.8601 563.238 32.605C563.616 32.1631 563.995 31.7213 564.374 31.2795C564.644 30.9643 564.644 30.9643 564.92 30.6428C565.911 29.4857 566.903 28.3287 567.895 27.1716Z" fill="#FEFEFC"/>
<path d="M420.468 24.7679C422.604 25.5498 424.205 26.7554 426.001 28.1231C426.317 28.3544 426.633 28.5858 426.958 28.8241C427.257 29.0503 427.555 29.2765 427.862 29.5096C428.271 29.8166 428.271 29.8166 428.688 30.1299C429.281 30.7771 429.281 30.7771 429.281 32.3796C428.897 33.0736 428.897 33.0736 428.357 33.7693C428.056 34.1628 428.056 34.1628 427.749 34.5642C427.536 34.8348 427.323 35.1054 427.103 35.3842C426.695 35.9141 426.286 36.4441 425.878 36.9742C425.661 37.2525 425.445 37.5309 425.222 37.8177C423.751 39.7288 422.312 41.6647 420.869 43.5969C421.266 43.5633 421.663 43.5298 422.073 43.4952C434.092 42.5657 434.092 42.5657 436.981 44.9396C438.644 46.7661 439.904 48.7119 440.273 51.1773C440.024 52.9299 439.538 54.5758 439.021 56.2664C438.041 59.571 437.153 62.8847 436.352 66.2374C435.967 67.8293 435.557 69.3354 434.89 70.8389C427.277 69.2209 427.277 69.2209 424.073 68.0345C424.313 65.6661 424.786 63.4822 425.451 61.199C425.538 60.893 425.625 60.5871 425.714 60.2718C425.966 59.3867 426.222 58.5026 426.477 57.6185C426.632 57.0766 426.787 56.5346 426.942 55.9926C427.053 55.6037 427.164 55.2148 427.278 54.8142C427.028 54.8409 426.777 54.8675 426.519 54.895C423.364 55.2087 420.22 55.3259 417.052 55.4074C416.48 55.4231 415.907 55.439 415.334 55.4549C413.789 55.4976 412.244 55.5385 410.699 55.579C409.398 55.6133 408.097 55.6484 406.795 55.6836C403.712 55.7669 400.63 55.8488 397.547 55.9297C394.401 56.0122 391.256 56.097 388.111 56.183C385.385 56.2574 382.66 56.3304 379.935 56.4024C378.319 56.4452 376.703 56.4883 375.086 56.5327C366.842 56.7586 358.607 56.8654 350.36 56.8173C350.456 57.6712 350.552 58.5251 350.648 59.379C350.702 59.8545 350.756 60.33 350.811 60.82C350.896 61.5734 350.981 62.3268 351.066 63.0801C351.144 63.7701 351.222 64.4603 351.299 65.1504C351.349 65.5973 351.4 66.0441 351.451 66.5046C351.562 67.6339 351.562 67.6339 351.562 68.8358C350.602 68.9627 349.642 69.0875 348.682 69.2114C348.42 69.2462 348.158 69.2811 347.888 69.317C345.248 69.6549 342.598 69.8476 339.944 70.0376C339.714 67.7996 339.486 65.5615 339.259 63.3232C339.182 62.5623 339.104 61.8015 339.026 61.0408C338.913 59.945 338.803 58.849 338.692 57.7531C338.657 57.415 338.622 57.0769 338.586 56.7285C338.107 51.9417 338.107 51.9417 338.87 50.8596C339.109 50.6526 339.347 50.4455 339.593 50.2321C340.686 49.2955 340.686 49.2955 341.505 48.1329C342.095 47.1614 342.6 46.6406 343.549 46.0006C345.897 45.4942 348.247 45.483 350.642 45.4357C351.384 45.411 352.126 45.3854 352.868 45.3591C358.686 45.1707 364.507 45.1599 370.327 45.1338C373.327 45.1176 376.328 45.0885 379.329 45.058C381.898 45.0336 384.465 45.0238 387.034 45.0412C389.574 45.0576 392.112 45.037 394.651 44.9916C395.604 44.9811 396.557 44.9836 397.509 45.0004C402.525 45.2023 402.525 45.2023 406.973 43.2588C408.646 41.4737 409.893 39.4838 411.085 37.3565C411.992 35.8109 413.085 34.418 414.183 33.0056C414.573 32.4887 414.962 31.9713 415.351 31.4532C415.536 31.2074 415.721 30.9616 415.911 30.7083C416.458 29.9809 417.003 29.2525 417.548 28.5237C417.716 28.2987 417.884 28.0738 418.057 27.8421C418.508 27.2394 418.958 26.6367 419.408 26.0339C420.067 25.1685 420.067 25.1685 420.468 24.7679Z" fill="#FEFEFD"/>
<path d="M194.119 29.976C197.821 29.976 201.523 29.976 205.337 29.976C205.337 36.0573 205.337 42.1387 205.337 48.4043C206.526 48.1399 207.716 47.8755 208.942 47.6031C210.013 47.4754 210.013 47.4754 210.872 47.4372C211.342 47.414 211.342 47.414 211.822 47.3903C212.293 47.3717 212.293 47.3717 212.773 47.3527C213.101 47.3372 213.428 47.3217 213.766 47.3058C214.562 47.2686 215.357 47.2351 216.153 47.2025C216.792 49.7737 217.106 52.1956 217.205 54.8393C217.22 55.186 217.236 55.5328 217.252 55.8901C217.289 56.7332 217.323 57.5765 217.355 58.4198C216.029 58.6244 214.701 58.8231 213.374 59.0207C213.003 59.078 212.632 59.1354 212.25 59.1944C211.882 59.2486 211.514 59.3029 211.135 59.3587C210.634 59.4343 210.634 59.4343 210.124 59.5113C208.535 59.6597 206.933 59.6216 205.337 59.6216C205.469 73.8996 205.601 88.1776 205.737 102.888C208.249 101.302 210.761 99.7154 213.349 98.0809C214.01 97.6843 214.671 97.2877 215.352 96.879C216.808 97.3645 216.942 97.7271 217.709 99.0152C217.92 99.3681 218.131 99.7211 218.349 100.085C218.566 100.456 218.784 100.828 219.008 101.211C219.228 101.578 219.449 101.945 219.676 102.323C221.45 105.315 221.45 105.315 221.762 106.894C221.533 107.033 221.304 107.171 221.069 107.314C216.205 110.259 211.362 113.234 206.546 116.257C203.324 118.277 200.08 120.259 196.823 122.221C194.791 123.45 192.81 124.718 190.87 126.09C190.113 126.525 190.113 126.525 188.911 126.525C188.26 125.716 188.26 125.716 187.567 124.597C187.318 124.199 187.069 123.801 186.812 123.392C186.555 122.971 186.297 122.551 186.032 122.118C185.77 121.698 185.508 121.277 185.238 120.844C184.589 119.802 183.944 118.758 183.303 117.711C184.431 116.471 185.424 115.791 186.956 115.124C191.334 113.05 191.334 113.05 194.225 109.35C194.938 106.265 194.817 103.126 194.693 99.9811C194.649 98.6152 194.655 97.2494 194.656 95.8829C194.65 93.3038 194.599 90.7276 194.532 88.1495C194.457 85.2111 194.433 82.2729 194.413 79.3337C194.371 73.2958 194.266 67.2605 194.119 61.2241C193.687 61.31 193.254 61.3959 192.809 61.4844C192.232 61.5965 191.654 61.7084 191.077 61.8203C190.793 61.877 190.509 61.9337 190.217 61.9921C187.897 62.4381 185.665 62.5611 183.303 62.426C182.549 58.6902 181.91 55.0231 181.7 51.2087C182.952 51.015 184.204 50.8237 185.456 50.6328C185.805 50.5788 186.153 50.5249 186.512 50.4693C186.861 50.4163 187.209 50.3634 187.569 50.3088C187.883 50.2606 188.198 50.2123 188.522 50.1626C190.25 49.9365 191.985 49.7795 193.719 49.6062C193.851 43.1282 193.983 36.6502 194.119 29.976Z" fill="#FEFEFD"/>
<path d="M95.1668 172.996C97.3609 172.946 99.5546 172.91 101.749 172.886C102.494 172.876 103.238 172.863 103.982 172.845C109.222 172.725 113.461 172.922 117.752 176.301C121.568 179.975 123.132 184.504 123.291 189.739C123.386 196.245 122.728 201.862 118.052 206.823C116.573 208.206 115.059 209.09 113.195 209.853C112.686 210.089 112.686 210.089 112.168 210.329C109.911 211.081 107.579 211.112 105.221 211.094C104.932 211.093 104.642 211.093 104.344 211.092C103.43 211.09 102.516 211.085 101.602 211.08C100.978 211.078 100.353 211.076 99.7293 211.075C98.2084 211.07 96.6876 211.063 95.1668 211.055C95.1318 208.243 95.0994 205.459 95.364 202.658C95.6805 198.994 95.627 195.321 95.6196 191.647C95.6175 190.384 95.6196 189.121 95.6222 187.858C95.6236 182.891 95.4888 177.953 95.1668 172.996Z" fill="#020202"/>
<path d="M3.82596 172.996C6.02006 172.946 8.21383 172.91 10.4084 172.886C11.1528 172.876 11.8972 172.863 12.6415 172.845C17.8808 172.725 22.1203 172.922 26.4108 176.301C30.2276 179.975 31.7911 184.504 31.9505 189.739C32.0455 196.245 31.3875 201.862 26.7112 206.823C25.2324 208.206 23.7183 209.09 21.8537 209.853C21.3456 210.089 21.3456 210.089 20.8272 210.329C18.5704 211.081 16.2377 211.112 13.8805 211.094C13.591 211.093 13.3016 211.093 13.0033 211.092C12.0892 211.09 11.175 211.085 10.2609 211.08C9.63674 211.078 9.0126 211.076 8.38846 211.075C6.86761 211.07 5.34679 211.063 3.82596 211.055C3.79096 208.243 3.75859 205.459 4.02314 202.658C4.33971 198.994 4.28617 195.321 4.27881 191.647C4.27667 190.384 4.27879 189.121 4.28135 187.858C4.28281 182.891 4.14799 177.953 3.82596 172.996Z" fill="#020202"/>
<path d="M400.838 184.814C401.234 185.013 401.631 185.211 402.039 185.415C402.039 185.019 402.039 184.622 402.039 184.214C405.038 184.064 407.571 184.615 410.452 185.415C410.472 189.917 410.436 194.414 410.325 198.914C410.31 199.564 410.296 200.215 410.283 200.866C410.02 214.576 410.02 214.576 406.396 218.566C402.383 222.277 397.634 222.515 392.436 222.332C390.103 222.16 388.069 221.331 386.015 220.269C386.29 217.788 386.928 215.454 387.617 213.058C388.4 213.438 389.159 213.821 389.894 214.288C392.315 215.744 394.867 215.855 397.633 215.462C399.276 214.641 400.085 213.95 400.838 212.257C401.043 211.183 401.146 210.144 401.238 209.052C400.909 209.225 400.579 209.399 400.24 209.578C396.964 211.212 394.592 212.091 390.999 211.202C388.025 210.197 385.729 208.418 384.273 205.606C383.869 204.625 383.516 203.657 383.21 202.642C383.134 202.397 383.058 202.151 382.979 201.899C382.073 197.296 382.862 192.826 385.439 188.921C389.046 184.435 395.447 182.755 400.838 184.814Z" fill="#030303"/>
<path d="M557.479 170.593C558.925 170.716 560.371 170.84 561.861 170.968C562.317 171.006 562.774 171.044 563.244 171.084C563.601 171.115 563.958 171.147 564.326 171.179C564.693 171.211 565.06 171.242 565.438 171.275C566.293 171.394 566.293 171.394 566.693 171.794C566.656 172.857 566.594 173.912 566.521 174.973C566.196 180.524 566.232 186.079 566.241 191.637C566.243 193.159 566.241 194.68 566.239 196.202C566.238 197.393 566.238 198.583 566.239 199.773C566.239 200.334 566.239 200.895 566.238 201.456C566.234 204.679 566.328 207.851 566.693 211.055C565.308 211.077 563.923 211.092 562.537 211.105C562.142 211.112 561.748 211.118 561.341 211.125C560.964 211.128 560.587 211.13 560.199 211.133C559.677 211.139 559.677 211.139 559.144 211.146C558.28 211.055 558.28 211.055 557.479 210.254C557.229 209.202 557.229 209.202 557.079 208.251C556.842 208.415 556.605 208.579 556.36 208.748C556.044 208.964 555.727 209.18 555.401 209.402C555.09 209.616 554.778 209.83 554.457 210.05C551.901 211.619 549.531 211.836 546.605 211.297C544.015 210.506 541.974 208.594 540.6 206.287C538.85 202.404 538.615 196.42 540.027 192.401C541.769 188.893 544.645 186.102 548.265 184.614C549.65 184.161 550.97 184.147 552.421 184.138C552.862 184.133 553.303 184.127 553.758 184.121C555.075 184.214 555.075 184.214 557.479 185.015C557.479 180.255 557.479 175.496 557.479 170.593Z" fill="#030303"/>
<path d="M614.417 185.666C617.406 187.583 619.965 190.292 620.777 193.828C621.335 198.785 620.964 203.358 617.772 207.374C615.03 210.161 612.192 211.551 608.285 211.675C603.575 211.701 600.317 210.973 596.834 207.636C594.059 204.575 592.908 200.984 593.009 196.889C593.478 192.924 595.529 189.003 598.643 186.492C603.545 183.152 609.196 182.768 614.417 185.666Z" fill="#040404"/>
<path d="M466.539 174.599C466.018 177.712 465.335 180.759 464.536 183.813C463.334 183.412 463.334 183.412 462.408 182.261C461.166 180.732 459.976 179.93 457.968 179.694C455.859 179.618 454.314 179.796 452.517 181.009C451.65 182.31 451.495 182.704 451.716 184.214C452.798 185.484 453.846 186.157 455.364 186.824C455.955 187.093 455.955 187.093 456.559 187.367C457.378 187.731 458.198 188.093 459.019 188.453C462.39 189.992 465.98 192.107 467.505 195.675C468.511 199.753 467.796 203.497 465.666 207.032C463.857 209.488 460.857 210.945 457.952 211.714C452.312 212.495 447.192 211.588 442.502 208.251C441.341 207.089 441.709 203.829 441.676 202.26C441.676 201.319 441.682 200.378 441.701 199.437C442.015 199.652 442.329 199.867 442.652 200.088C446.666 202.751 449.945 204.799 454.921 204.244C456.245 203.899 456.653 203.598 457.725 202.642C458.21 201.406 458.416 200.338 458.126 199.036C456.59 197.044 454.636 196.232 452.392 195.256C449.114 193.825 444.666 191.87 443.273 188.326C442.455 185.438 442.452 182.413 443.704 179.657C445.517 176.541 448.131 174.626 451.478 173.35C456.568 172.1 461.65 172.962 466.539 174.599Z" fill="#030303"/>
<path d="M92.7628 76.8482C93.9551 77.3732 94.6718 77.8843 95.478 78.9045C95.7825 79.2849 95.7825 79.2849 96.0932 79.673C96.3079 79.9472 96.5227 80.2213 96.744 80.5038C97.2097 81.0881 97.6755 81.6723 98.1414 82.2565C98.3788 82.556 98.6162 82.8556 98.8607 83.1642C99.7562 84.289 100.665 85.4027 101.575 86.5159C103.577 88.9652 105.547 91.4366 107.492 93.9309C108.962 95.8073 110.472 97.6474 111.992 99.4831C113.885 101.769 115.748 104.074 117.574 106.414C119.695 109.132 121.854 111.818 124.011 114.506C123.383 116.327 121.934 117.222 120.456 118.337C120.205 118.53 119.955 118.723 119.697 118.922C119.213 119.293 118.728 119.662 118.242 120.029C117.718 120.426 117.206 120.838 116.697 121.253C115.999 121.717 115.999 121.717 114.797 121.717C114.102 120.941 113.487 120.174 112.869 119.339C112.476 118.823 112.083 118.308 111.689 117.794C111.48 117.52 111.27 117.246 111.055 116.964C109.905 115.484 108.707 114.045 107.511 112.603C105.798 110.534 104.098 108.457 102.426 106.355C101.283 104.925 100.128 103.506 98.9724 102.087C97.3146 100.05 95.6648 98.0064 94.0273 95.9526C93.1056 94.8039 92.1777 93.6604 91.2483 92.5179C90.7921 91.957 90.3362 91.3958 89.8808 90.8343C88.8958 89.62 87.9093 88.4076 86.9085 87.2063C86.6178 86.8536 86.327 86.5009 86.0275 86.1375C85.777 85.8374 85.5265 85.5374 85.2685 85.2283C84.7505 84.4599 84.7505 84.4599 84.7505 83.2581C85.5877 82.4506 85.5877 82.4506 86.7285 81.5554C87.1272 81.2399 87.5259 80.9244 87.9366 80.5993C88.3395 80.2868 88.7423 79.9744 89.1573 79.6525C89.5188 79.369 89.8803 79.0855 90.2527 78.7934C91.0867 78.1413 91.9232 77.4929 92.7628 76.8482Z" fill="#FDFDFC"/>
<path d="M257.016 185.015C258.989 186.637 260.47 188.439 260.864 190.999C260.892 191.589 260.912 192.179 260.925 192.769C260.946 193.24 260.946 193.24 260.966 193.72C261.009 194.716 261.041 195.712 261.072 196.708C261.108 197.708 261.145 198.708 261.187 199.708C261.212 200.329 261.234 200.95 261.251 201.57C261.308 203.062 261.377 203.774 262.224 205.046C263.452 205.339 263.452 205.339 264.628 205.446C264.441 207.26 263.876 207.962 262.499 209.127C262.187 209.397 261.875 209.667 261.553 209.945C259.891 211.21 258.731 211.709 256.615 211.456C255.363 210.704 255.363 210.704 254.212 209.853C253.496 209.285 253.496 209.285 252.609 209.052C251.523 209.492 251.523 209.492 250.406 210.204C247.872 211.553 245.832 211.928 242.994 211.456C241.239 210.915 240.165 209.975 239.239 208.401C239.024 207.955 238.809 207.508 238.588 207.049C238.455 206.784 238.323 206.52 238.187 206.248C237.854 203.619 238.287 201.615 239.789 199.437C242.425 196.091 246.146 194.756 250.206 193.828C251.658 193.753 251.658 193.753 252.609 193.828C252.419 193.235 252.226 192.643 252.033 192.051C251.926 191.721 251.82 191.391 251.709 191.051C251.479 190.238 251.479 190.238 251.007 189.822C248.374 189.493 247.083 190.084 244.951 191.622C244.163 192.23 244.163 192.23 243.395 193.027C242.998 193.027 242.602 193.027 242.193 193.027C241.375 192.063 241.375 192.063 240.516 190.824C240.229 190.415 239.942 190.006 239.647 189.584C239.43 189.266 239.212 188.948 238.988 188.62C239.831 187.701 240.601 187.145 241.727 186.614C242.021 186.475 242.316 186.336 242.619 186.193C242.925 186.052 243.23 185.911 243.545 185.766C243.848 185.622 244.151 185.478 244.462 185.329C248.461 183.463 252.951 182.962 257.016 185.015Z" fill="#040404"/>
<path d="M58.7104 185.015C60.6835 186.637 62.1648 188.439 62.5587 190.999C62.5863 191.589 62.6062 192.179 62.6195 192.769C62.6399 193.24 62.6399 193.24 62.6608 193.72C62.7031 194.716 62.7355 195.712 62.7666 196.708C62.8019 197.708 62.8393 198.708 62.881 199.708C62.9065 200.329 62.9281 200.95 62.9453 201.57C63.0027 203.062 63.0709 203.774 63.9184 205.046C65.1465 205.339 65.1465 205.339 66.3221 205.446C66.1353 207.26 65.5705 207.962 64.1938 209.127C63.8814 209.397 63.5689 209.667 63.247 209.945C61.5856 211.21 60.425 211.709 58.3097 211.456C57.0578 210.704 57.0578 210.704 55.906 209.853C55.1908 209.285 55.1908 209.285 54.3036 209.052C53.2175 209.492 53.2175 209.492 52.1002 210.204C49.5661 211.553 47.5261 211.928 44.6888 211.456C42.9332 210.915 41.8595 209.975 40.933 208.401C40.7181 207.955 40.5033 207.508 40.282 207.049C40.1498 206.784 40.0176 206.52 39.8814 206.248C39.5487 203.619 39.9815 201.615 41.4838 199.437C44.1195 196.091 47.8399 194.756 51.8999 193.828C53.3521 193.753 53.3521 193.753 54.3036 193.828C54.1131 193.235 53.9208 192.643 53.7277 192.051C53.6208 191.721 53.5139 191.391 53.4038 191.051C53.1732 190.238 53.1732 190.238 52.7011 189.822C50.0686 189.493 48.7773 190.084 46.6449 191.622C45.8571 192.23 45.8571 192.23 45.0894 193.027C44.6928 193.027 44.2962 193.027 43.8875 193.027C43.0691 192.063 43.0691 192.063 42.2099 190.824C41.9233 190.415 41.6367 190.006 41.3414 189.584C41.124 189.266 40.9066 188.948 40.6826 188.62C41.5254 187.701 42.2952 187.145 43.4212 186.614C43.7155 186.475 44.0099 186.336 44.3132 186.193C44.6189 186.052 44.9246 185.911 45.2396 185.766C45.5422 185.622 45.8449 185.478 46.1566 185.329C50.1552 183.463 54.6455 182.962 58.7104 185.015Z" fill="#040404"/>
<path d="M505.799 183.813C506.144 183.852 506.144 183.852 506.496 183.893C508.34 184.101 510.183 184.29 512.034 184.439C512.655 184.489 512.655 184.489 513.288 184.541C513.745 184.577 513.745 184.577 514.212 184.614C514.206 185.085 514.2 185.556 514.193 186.041C514.171 187.796 514.158 189.551 514.146 191.307C514.14 192.065 514.132 192.823 514.122 193.581C514.107 194.674 514.1 195.767 514.095 196.86C514.089 197.196 514.083 197.532 514.076 197.878C514.076 200.039 514.415 201.52 515.414 203.443C515.81 203.932 515.81 203.932 516.572 203.852C518.649 203.669 519.933 203.421 521.424 201.841C522.095 200.707 522.328 199.86 522.352 198.549C522.36 198.22 522.368 197.891 522.377 197.552C522.384 197.026 522.384 197.026 522.391 196.489C522.398 196.126 522.406 195.764 522.414 195.391C522.438 194.236 522.457 193.081 522.475 191.925C522.49 191.141 522.506 190.357 522.522 189.573C522.561 187.653 522.593 185.733 522.625 183.813C526.79 184.21 526.79 184.21 531.038 184.614C531.038 193.207 531.038 201.801 531.038 210.654C525.179 211.556 525.179 211.556 522.225 211.456C522.225 210.53 522.225 209.605 522.225 208.651C521.954 208.815 521.684 208.98 521.405 209.149C520.869 209.473 520.869 209.473 520.322 209.803C519.969 210.017 519.615 210.231 519.251 210.451C518.911 210.65 518.57 210.85 518.219 211.055C517.842 211.287 517.842 211.287 517.458 211.524C515.457 212.313 513.112 212.052 511.007 211.856C509.133 211.001 507.655 209.638 506.601 207.85C505.648 205.112 505.694 202.286 505.721 199.423C505.722 198.975 505.723 198.526 505.725 198.064C505.729 196.644 505.739 195.224 505.749 193.803C505.753 192.835 505.757 191.868 505.76 190.9C505.769 188.537 505.782 186.175 505.799 183.813Z" fill="#030303"/>
<path d="M370.791 184.489C372.52 185.369 373.529 186.484 374.397 188.22C374.433 188.96 374.444 189.702 374.442 190.444C374.442 190.909 374.442 191.374 374.442 191.853C374.44 192.357 374.438 192.861 374.436 193.381C374.435 193.895 374.435 194.41 374.434 194.94C374.433 196.309 374.429 197.677 374.424 199.046C374.42 200.442 374.418 201.839 374.416 203.235C374.412 205.975 374.405 208.715 374.397 211.456C373.379 211.399 372.36 211.34 371.342 211.28C371.057 211.264 370.771 211.249 370.477 211.233C368.821 211.134 367.217 210.961 365.583 210.654C365.595 210.36 365.608 210.066 365.62 209.763C365.91 202.924 365.91 202.924 366.059 196.082C366.065 195.608 366.07 195.134 366.076 194.645C365.975 193.31 365.765 192.007 364.782 191.024C362.84 190.775 361.512 190.829 359.799 191.825C359.461 192.09 359.122 192.354 358.773 192.626C358.508 192.626 358.244 192.626 357.972 192.626C358.104 198.84 358.236 205.054 358.372 211.456C351.562 211.055 351.562 211.055 349.559 210.654C349.559 202.193 349.559 193.732 349.559 185.015C356.369 185.415 356.369 185.415 358.773 186.217C360.015 185.791 360.015 185.791 361.227 185.065C364.491 183.444 367.364 183.128 370.791 184.489Z" fill="#030303"/>
<path d="M319.373 184.908C320.863 185.712 321.389 186.639 321.916 188.22C321.963 188.975 321.987 189.732 321.998 190.489C322.01 191.187 322.01 191.187 322.022 191.899C322.029 192.401 322.036 192.903 322.043 193.42C322.051 193.934 322.059 194.448 322.068 194.978C322.09 196.343 322.11 197.708 322.129 199.074C322.149 200.467 322.172 201.861 322.194 203.255C322.237 205.988 322.277 208.722 322.317 211.456C320.124 211.5 318.051 211.42 315.882 211.055C315.205 210.943 315.205 210.943 314.515 210.83C314.181 210.772 313.847 210.714 313.503 210.654C313.506 210.312 313.506 210.312 313.508 209.963C313.526 207.591 313.538 205.219 313.547 202.847C313.551 201.961 313.556 201.076 313.563 200.19C313.573 198.918 313.578 197.646 313.581 196.375C313.585 195.978 313.589 195.581 313.594 195.172C313.594 194.803 313.594 194.434 313.594 194.054C313.597 193.567 313.597 193.567 313.599 193.07C313.554 192.105 313.554 192.105 312.702 191.024C311.917 190.817 311.917 190.817 311.024 190.849C310.729 190.841 310.434 190.833 310.131 190.825C308.622 191.115 307.382 191.535 306.292 192.627C305.866 194.044 305.91 195.431 305.93 196.902C305.923 197.525 305.923 197.525 305.915 198.161C305.903 199.488 305.909 200.814 305.916 202.141C305.911 203.041 305.905 203.941 305.897 204.841C305.88 207.046 305.88 209.25 305.891 211.456C305.254 211.46 304.616 211.464 303.978 211.467C303.623 211.469 303.268 211.471 302.902 211.473C300.924 211.439 299.016 211.015 297.078 210.654C297.106 210.366 297.135 210.077 297.164 209.779C297.439 206.785 297.532 203.827 297.517 200.82C297.517 200.365 297.516 199.909 297.516 199.44C297.513 198.003 297.508 196.567 297.503 195.13C297.501 194.149 297.499 193.167 297.498 192.185C297.493 189.795 297.487 187.405 297.478 185.015C298.12 185.01 298.761 185.007 299.402 185.004C299.759 185.002 300.116 185 300.484 184.998C301.608 185.017 302.643 185.165 303.738 185.415C304.241 185.527 304.241 185.527 304.755 185.641C305.119 185.728 305.119 185.728 305.491 185.816C305.491 186.08 305.491 186.345 305.491 186.617C305.907 186.415 306.323 186.212 306.752 186.004C311.431 183.794 314.376 183.096 319.373 184.908Z" fill="#030303"/>
<path d="M174.088 172.596C176.004 172.555 177.455 172.866 179.296 173.397C180.486 173.529 181.676 173.661 182.902 173.797C182.902 183.581 182.902 193.364 182.902 203.443C191.209 203.175 191.209 203.175 199.327 202.241C199.724 205.15 200.12 208.058 200.529 211.055C191.539 211.055 182.549 211.055 173.287 211.055C173.287 208.63 173.382 206.599 173.688 204.244C173.731 203.152 173.761 202.068 173.77 200.975C173.774 200.666 173.778 200.357 173.782 200.038C173.795 199.028 173.805 198.018 173.814 197.008C173.823 196.303 173.831 195.598 173.84 194.893C173.862 193.047 173.882 191.2 173.901 189.353C173.921 187.465 173.943 185.577 173.965 183.689C174.008 179.991 174.049 176.294 174.088 172.596Z" fill="#060606"/>
<path d="M225.142 185.015C227.941 186.654 229.921 188.902 230.802 192.049C231.596 196.519 231.596 196.519 230.516 198.113C228.38 199.618 225.784 199.669 223.264 199.888C222.907 199.922 222.55 199.957 222.182 199.993C219.766 200.214 217.377 200.28 214.951 200.238C216.08 202.861 216.08 202.861 217.805 205.096C220.664 205.966 223.423 205.717 226.084 204.387C227.432 203.56 228.656 202.603 229.874 201.597C230.575 201.04 230.575 201.04 230.976 201.04C231.266 203.71 230.452 205.631 228.973 207.85C226.503 210.559 224.102 211.657 220.458 211.922C216.801 212.048 213.709 211.257 210.846 208.92C208.494 206.678 207.346 204.293 207.205 201.021C207.195 200.259 207.19 199.498 207.189 198.736C207.179 198.36 207.169 197.984 207.159 197.597C207.144 193.856 208.206 190.521 210.827 187.777C214.949 184.372 220.053 182.767 225.142 185.015Z" fill="#040404"/>
<path d="M480.561 174.599C483.469 174.995 486.378 175.392 489.374 175.801C489.383 176.883 489.391 177.965 489.399 179.081C489.403 179.418 489.407 179.755 489.41 180.103C489.416 181.661 489.361 183.092 488.974 184.614C489.302 184.527 489.631 184.441 489.969 184.351C490.401 184.24 490.832 184.128 491.277 184.013C491.705 183.902 492.132 183.79 492.573 183.675C493.781 183.412 493.781 183.412 495.384 183.412C495.787 184.388 496.187 185.364 496.585 186.342C496.7 186.618 496.815 186.895 496.933 187.18C497.422 188.386 497.787 189.309 497.787 190.623C496.694 190.758 495.601 190.892 494.507 191.024C494.199 191.062 493.891 191.1 493.574 191.14C493.273 191.176 492.972 191.212 492.662 191.249C492.387 191.283 492.113 191.317 491.829 191.351C490.874 191.434 489.932 191.436 488.974 191.425C489.006 193.161 489.052 194.897 489.099 196.633C489.113 197.366 489.113 197.366 489.126 198.115C489.206 200.809 489.369 203.014 490.576 205.446C491.898 206.107 493.377 206 494.833 206.072C495.315 206.098 495.315 206.098 495.806 206.125C496.6 206.167 497.394 206.208 498.188 206.248C496.532 209.169 494.41 210.829 491.252 211.98C488.905 212.584 486.703 212.586 484.417 211.781C482.739 210.623 481.275 209.392 480.561 207.449C480.493 206.302 480.468 205.196 480.483 204.05C480.484 203.724 480.485 203.397 480.486 203.06C480.49 202.019 480.501 200.979 480.511 199.938C480.515 199.231 480.518 198.524 480.522 197.817C480.53 196.087 480.544 194.357 480.561 192.627C479.239 192.891 477.917 193.155 476.555 193.428C476.286 192.519 476.019 191.609 475.753 190.699C475.605 190.192 475.456 189.685 475.303 189.163C474.952 187.819 474.952 187.819 474.952 186.617C476.803 186.485 478.654 186.353 480.561 186.217C480.561 182.383 480.561 178.549 480.561 174.599Z" fill="#050505"/>
<path d="M286.011 183.362C287.606 184.046 289.036 184.988 290.267 186.217C290.561 187.098 290.561 187.098 290.668 187.819C290.357 188.033 290.046 188.247 289.726 188.467C289.053 188.931 288.38 189.397 287.717 189.875C286.469 190.77 285.255 191.547 283.865 192.204C282.238 193.035 280.811 193.829 279.851 195.431C279.078 198.698 279.555 202.141 279.851 205.446C279.892 206.138 279.929 206.831 279.962 207.523C280.033 208.97 280.131 210.412 280.252 211.856C277.008 211.968 274.38 211.532 271.038 211.055C271.038 202.065 271.038 193.075 271.038 183.813C278.85 184.414 278.85 184.414 279.451 185.015C279.467 185.949 279.468 186.885 279.451 187.819C279.654 187.635 279.858 187.451 280.067 187.262C284.344 183.45 284.344 183.45 286.011 183.362Z" fill="#030303"/>
<path d="M561.886 72.0408C561.489 74.5526 561.093 77.0645 560.684 79.6525C559.253 79.891 557.946 80.1056 556.519 80.2026C556.192 80.2253 555.864 80.248 555.526 80.2715C555.001 80.3059 555.001 80.3059 554.465 80.341C554.094 80.3661 553.722 80.3912 553.34 80.417C552.132 80.4977 550.925 80.5761 549.717 80.654C549.308 80.6808 548.898 80.7076 548.476 80.7353C541.33 81.2001 534.192 81.5049 527.032 81.6556C526.371 79.4081 525.71 77.1606 525.029 74.8451C526.409 74.3853 527.629 74.2944 529.08 74.1783C529.513 74.1431 529.513 74.1431 529.955 74.1071C530.912 74.0297 531.869 73.9545 532.826 73.8795C533.494 73.8263 534.163 73.773 534.831 73.7196C536.235 73.6078 537.64 73.4971 539.044 73.3873C540.831 73.2474 542.617 73.1043 544.403 72.9602C545.786 72.8491 547.169 72.74 548.553 72.6313C549.21 72.5794 549.868 72.5269 550.526 72.4737C554.325 72.1673 558.07 71.9842 561.886 72.0408Z" fill="#FAE225"/>
<path d="M133.626 184.214C136.006 184.478 138.385 184.742 140.837 185.015C140.847 185.612 140.857 186.21 140.868 186.825C140.906 189.071 140.946 191.317 140.986 193.563C141.004 194.53 141.02 195.496 141.036 196.463C141.125 201.737 141.228 206.996 141.638 212.257C141.139 212.262 140.64 212.267 140.125 212.272C139.844 212.275 139.563 212.278 139.274 212.281C138.032 212.245 136.883 211.977 135.679 211.681C135.234 211.574 134.789 211.467 134.33 211.357C133.226 211.055 133.226 211.055 132.424 210.654C132.378 207.794 132.504 205.01 132.8 202.166C133.375 196.195 133.482 190.207 133.626 184.214Z" fill="#020202"/>
<path d="M577.109 184.214C578.002 184.27 578.895 184.329 579.788 184.389C580.286 184.421 580.783 184.454 581.295 184.487C582.47 184.592 583.573 184.754 584.721 185.015C584.719 185.541 584.717 186.067 584.714 186.61C584.707 188.606 584.703 190.601 584.699 192.597C584.697 193.453 584.694 194.309 584.691 195.165C584.668 200.876 584.79 206.555 585.121 212.257C582.95 212.279 581.073 212.161 578.937 211.681C578.45 211.574 577.963 211.467 577.461 211.357C576.308 211.055 576.308 211.055 575.907 210.654C575.934 209.919 575.99 209.184 576.057 208.451C576.56 202.64 576.788 196.828 576.934 190.999C576.951 190.335 576.969 189.671 576.986 189.008C577.028 187.41 577.069 185.812 577.109 184.214Z" fill="#020202"/>
<path d="M332.332 184.214C333.225 184.27 334.118 184.329 335.011 184.389C335.509 184.421 336.006 184.454 336.518 184.487C337.693 184.592 338.796 184.754 339.944 185.015C339.942 185.541 339.94 186.067 339.938 186.61C339.93 188.606 339.926 190.601 339.922 192.597C339.92 193.453 339.917 194.309 339.914 195.165C339.891 200.876 340.013 206.555 340.345 212.257C338.173 212.279 336.296 212.161 334.16 211.681C333.673 211.574 333.186 211.467 332.684 211.357C331.531 211.055 331.531 211.055 331.13 210.654C331.157 209.919 331.213 209.184 331.281 208.451C331.783 202.64 332.012 196.828 332.157 190.999C332.174 190.335 332.192 189.671 332.209 189.008C332.251 187.41 332.292 185.812 332.332 184.214Z" fill="#020202"/>
<path d="M103.98 180.207C104.612 180.195 105.244 180.186 105.875 180.179C106.403 180.171 106.403 180.171 106.941 180.163C109.173 180.257 110.679 180.942 112.318 182.436C114.763 185.83 114.814 190.213 114.396 194.229C113.796 197.555 112.746 200.532 109.989 202.642C107.977 203.688 106.588 203.927 104.381 203.443C103.863 198.6 103.935 193.76 103.955 188.896C103.957 188.051 103.959 187.206 103.961 186.361C103.965 184.31 103.972 182.259 103.98 180.207Z" fill="#F8F8F8"/>
<path d="M12.6393 180.207C13.271 180.195 13.9027 180.186 14.5344 180.179C15.0621 180.171 15.0621 180.171 15.6004 180.163C17.8319 180.257 19.3379 180.942 20.9772 182.436C23.4219 185.83 23.4732 190.213 23.0554 194.229C22.4551 197.555 21.4057 200.532 18.6486 202.642C16.6365 203.688 15.2468 203.927 13.0399 203.443C12.5218 198.6 12.594 193.76 12.6143 188.896C12.6163 188.051 12.6181 187.206 12.6197 186.361C12.6241 184.31 12.631 182.259 12.6393 180.207Z" fill="#F8F8F8"/>
<path d="M384.813 25.1685C384.974 25.4572 385.136 25.7459 385.302 26.0434C385.908 27.1268 386.515 28.2102 387.121 29.2935C387.51 29.9881 387.898 30.6827 388.287 31.3773C388.535 31.8201 388.783 32.263 389.038 32.7192C389.277 33.1479 389.517 33.5766 389.763 34.0183C390.298 34.9655 390.847 35.901 391.404 36.8349C392.024 37.9883 392.024 37.9883 392.024 39.1901C387.463 41.7681 387.463 41.7681 382.81 44.3981C381.678 43.266 381.075 42.3571 380.306 40.9726C380.062 40.5354 379.818 40.0983 379.567 39.6479C379.315 39.1911 379.063 38.7343 378.804 38.2637C378.552 37.8116 378.3 37.3594 378.04 36.8936C376.917 34.8731 375.82 32.8504 374.797 30.7772C375.807 30.1422 376.817 29.508 377.827 28.8742C378.109 28.6966 378.391 28.5189 378.682 28.3359C383.736 25.1685 383.736 25.1685 384.813 25.1685Z" fill="#FEFEFC"/>
<path d="M356.77 27.5722C358.075 28.1311 358.798 28.7547 359.685 29.857C359.924 30.1508 360.163 30.4447 360.409 30.7474C360.654 31.0547 360.899 31.362 361.151 31.6786C361.639 32.2816 362.127 32.8846 362.615 33.4876C362.961 33.9218 362.961 33.9218 363.314 34.3647C363.918 35.1068 364.546 35.8169 365.184 36.5298C365.448 36.8789 365.712 37.228 365.984 37.5877C365.501 39.0366 365.002 39.3463 363.806 40.2668C363.448 40.5451 363.09 40.8235 362.721 41.1103C362.344 41.4021 361.966 41.6938 361.577 41.9945C360.825 42.594 360.074 43.1949 359.324 43.7972C358.739 44.2646 358.155 44.732 357.571 45.1994C355.861 43.9505 354.659 42.5592 353.389 40.8928C353.198 40.6448 353.006 40.3969 352.808 40.1414C351.441 38.3685 350.089 36.5833 348.757 34.7833C350.217 32.9026 351.77 31.4838 353.665 30.0511C354.168 29.6647 354.671 29.2781 355.173 28.8915C355.568 28.5883 355.963 28.2852 356.369 27.9729C356.501 27.8406 356.633 27.7084 356.77 27.5722Z" fill="#FEFEFC"/>
<path d="M609.158 190.223C610.801 191.36 611.899 192.432 612.764 194.229C612.891 195.314 612.955 196.277 612.939 197.359C612.936 197.786 612.936 197.786 612.932 198.221C612.863 200.536 612.488 201.964 611.162 203.844C609.618 205.294 608.087 205.595 605.979 205.556C604.563 205.368 603.792 204.79 602.749 203.844C601.655 201.75 601.314 200.009 601.321 197.659C601.322 197.359 601.323 197.06 601.324 196.751C601.396 194.617 601.746 193.165 603.267 191.58C605.265 189.956 606.638 189.503 609.158 190.223Z" fill="#FBFBFB"/>
<path d="M398.033 189.822C399.606 190.714 400.6 191.665 401.309 193.337C401.669 194.746 401.759 195.981 401.764 197.434C401.774 198.14 401.774 198.14 401.784 198.861C401.595 200.654 401.06 201.975 399.822 203.301C398.042 204.662 397.109 205.347 394.828 205.046C393.234 204.028 391.868 202.849 391.223 201.039C390.562 194.217 390.562 194.217 392.686 191.578C392.864 191.395 393.042 191.212 393.226 191.024C393.466 190.76 393.705 190.495 393.952 190.223C395.331 189.592 396.575 189.488 398.033 189.822Z" fill="#F8F8F8"/>
<path d="M556.564 190.733C558.076 192.537 557.784 194.533 557.755 196.808C557.766 197.262 557.777 197.715 557.788 198.183C557.779 201.404 557.779 201.404 556.967 202.587C555.612 203.755 554.303 204.204 552.547 204.37C550.779 204.22 550.003 203.792 548.666 202.642C547.794 200.988 547.745 199.51 547.739 197.659C547.732 197.148 547.726 196.636 547.719 196.109C547.975 193.501 549.127 191.922 551.069 190.223C553.06 189.559 554.715 189.866 556.564 190.733Z" fill="#FAFAFA"/>
<path d="M138.433 172.996C139.461 173.597 140.393 174.155 141.238 174.999C141.444 177.44 141.26 178.658 139.635 180.608C138.228 181.546 137.686 181.608 136.03 181.409C134.462 180.447 133.682 179.588 133.225 177.804C133.05 176.377 133.05 176.377 133.225 174.999C134.875 173.35 136.111 172.773 138.433 172.996Z" fill="#080808"/>
<path d="M583.118 173.397C584.145 173.998 584.145 173.998 584.721 174.999C585.025 176.538 585.041 177.922 584.367 179.359C583.515 180.528 582.709 181.012 581.366 181.509C579.625 181.389 578.902 180.983 577.669 179.786C576.685 178.415 576.436 177.059 576.708 175.4C578.638 172.897 580.187 172.746 583.118 173.397Z" fill="#080808"/>
<path d="M338.341 173.397C339.368 173.998 339.368 173.998 339.944 174.999C340.248 176.538 340.264 177.922 339.59 179.359C338.738 180.528 337.932 181.012 336.589 181.509C334.849 181.389 334.125 180.983 332.892 179.786C331.908 178.415 331.66 177.059 331.932 175.4C333.861 172.897 335.41 172.746 338.341 173.397Z" fill="#080808"/>
<path d="M220.96 189.422C222.376 190.239 222.866 190.7 223.339 192.276C223.347 192.656 223.356 193.036 223.364 193.428C222.106 194.686 220.877 194.621 219.137 194.669C218.64 194.664 218.143 194.659 217.63 194.655C217.128 194.651 216.625 194.647 216.108 194.644C215.726 194.639 215.344 194.634 214.951 194.63C215.584 192.535 216.285 191.403 217.755 189.822C218.899 189.251 219.692 189.297 220.96 189.422Z" fill="#F7F7F7"/>
<path d="M252.609 198.636C252.609 200.354 252.609 202.073 252.609 203.844C250.8 205.001 249.618 205.756 247.401 205.446C246.6 204.645 246.6 204.645 246.399 203.118C246.435 201.619 246.571 201.471 247.676 200.288C249.457 199.146 250.483 198.636 252.609 198.636Z" fill="#F7F7F7"/>
<path d="M54.3038 198.636C54.3038 200.354 54.3038 202.073 54.3038 203.844C52.4951 205.001 51.3132 205.756 49.0958 205.446C48.2945 204.645 48.2945 204.645 48.0942 203.118C48.1296 201.619 48.266 201.471 49.3712 200.288C51.1519 199.146 52.1775 198.636 54.3038 198.636Z" fill="#F7F7F7"/>
</svg>
